<svg width="46" height="46" viewBox="0 0 46 46" fill="none" xmlns="http://www.w3.org/2000/svg">
<g clip-path="url(#clip0_370_18)">
<path d="M46 23C46 19.8835 44.6315 16.9433 42.3104 15.0957C42.5788 11.9868 41.4671 8.94125 39.2629 6.73517C37.0587 4.53292 34.0227 3.41742 31.0653 3.75475C29.0567 1.3685 26.1165 0 23 0C19.8835 0 16.9433 1.3685 15.0957 3.68958C11.983 3.42125 8.93933 4.531 6.73517 6.73708C4.531 8.94125 3.42125 11.9887 3.75475 14.9347C1.3685 16.9433 0 19.8835 0 23C0 26.1165 1.3685 29.0567 3.68958 30.9043C3.42125 34.0132 4.53292 37.0607 6.73708 39.2648C8.94125 41.4709 11.9964 42.5845 14.9347 42.2453C16.9433 44.6315 19.8835 46 23 46C26.1165 46 29.0567 44.6315 30.9043 42.3104C34.0055 42.5768 37.0568 41.469 39.2629 39.2629C41.4652 37.0587 42.5768 34.0112 42.2433 31.0653C44.6315 29.0567 46 26.1165 46 23ZM39.7766 28.1328C38.8585 28.9053 38.3889 30.0361 38.4924 31.2321C38.6611 33.212 37.9557 35.1517 36.5527 36.5527C35.1497 37.9557 33.2139 38.6592 31.2321 38.4924C30.0322 38.3947 28.9072 38.8585 28.1347 39.7766C26.8544 41.2965 24.9837 42.1686 23 42.1686C21.0163 42.1686 19.1456 41.2965 17.8652 39.7766C17.1618 38.9428 16.1652 38.4809 15.0918 38.4809C14.9845 38.4809 14.8753 38.4847 14.7679 38.4943C12.7995 38.6649 10.8502 37.9577 9.44725 36.5547C8.04617 35.1517 7.33892 33.212 7.5095 31.234C7.61108 30.038 7.14533 28.911 6.22533 28.1347C4.70542 26.8563 3.83333 24.9838 3.83333 23.0019C3.83333 21.0201 4.70542 19.1475 6.22533 17.8672C7.14342 17.0928 7.61108 15.9639 7.50758 14.7679C7.33892 12.7899 8.04425 10.8502 9.44725 9.44725C10.8502 8.04617 12.7899 7.34467 14.7679 7.5095C15.9582 7.60342 17.0909 7.14342 17.8672 6.22533C19.1456 4.70542 21.0182 3.83333 23 3.83333C24.9818 3.83333 26.8544 4.70542 28.1347 6.22533C28.9072 7.1415 30.0342 7.61683 31.234 7.50758C33.1986 7.34658 35.1497 8.04425 36.5527 9.44725C37.9538 10.8483 38.6611 12.7899 38.4924 14.7679C38.3889 15.9639 38.8566 17.0928 39.7766 17.8672C41.2946 19.1456 42.1667 21.0182 42.1667 23C42.1667 24.9818 41.2946 26.8544 39.7766 28.1328Z" fill="#E36414"/>
<path d="M16.208 27.7305L19.1396 27.1738C19.1396 28.2871 19.721 29.1654 20.8838 29.8086C21.4528 30.0807 21.9971 30.2292 22.5166 30.2539V33.1855C20.1169 33.1855 18.3232 32.3197 17.1357 30.5879C16.5173 29.6725 16.208 28.7201 16.208 27.7305ZM16.3936 18.6016C16.3936 16.3503 17.4202 14.6803 19.4736 13.5918C20.4632 13.0723 21.4528 12.8125 22.4424 12.8125V15.707C21.3044 15.707 20.4261 16.1771 19.8076 17.1172C19.486 17.5872 19.3252 18.082 19.3252 18.6016C19.3252 19.3932 19.9437 20.0365 21.1807 20.5312C22.1208 20.9271 23.9391 21.4466 26.6357 22.0898C28.318 22.4362 29.5179 23.265 30.2354 24.5762C30.6064 25.2689 30.792 26.0482 30.792 26.9141C30.792 29.2891 29.8395 31.0456 27.9346 32.1836C26.8213 32.8516 25.5472 33.1855 24.1123 33.1855V30.2539C25.2503 30.2539 26.2028 29.8581 26.9697 29.0664C27.514 28.4974 27.7861 27.8294 27.7861 27.0625C27.7861 26.0729 26.8089 25.2812 24.8545 24.6875C24.3597 24.5391 23.568 24.3288 22.4795 24.0566C21.3167 23.7845 20.4756 23.5618 19.9561 23.3887C18.0758 22.6465 16.9378 21.5208 16.542 20.0117C16.443 19.5664 16.3936 19.0964 16.3936 18.6016ZM24.0752 15.7441V12.8125C26.2028 12.8125 27.9222 13.6042 29.2334 15.1875C30.0498 16.2018 30.458 17.2656 30.458 18.3789L27.5264 18.8613C27.5264 17.5007 26.7842 16.5482 25.2998 16.0039C24.8545 15.8307 24.4463 15.7441 24.0752 15.7441Z" fill="#7BD3EA"/>
</g>
<defs>
<clipPath id="clip0_370_18">
<rect width="46" height="46" fill="white"/>
</clipPath>
</defs>
</svg>
