<svg width="800" height="800" viewBox="0 0 800 800" fill="none" xmlns="http://www.w3.org/2000/svg">
<path d="M666.667 166.667H133.333C114.924 166.667 100 181.59 100 200V600C100 618.409 114.924 633.333 133.333 633.333H666.667C685.076 633.333 700 618.409 700 600V200C700 181.59 685.076 166.667 666.667 166.667Z" stroke="#E36414" stroke-width="66.6667" stroke-linecap="round" stroke-linejoin="round"/>
<path d="M687.333 174L420.666 383.667C414.782 388.317 407.5 390.847 400 390.847C392.499 390.847 385.218 388.317 379.333 383.667L112.667 174C118.531 169.295 125.814 166.71 133.333 166.667H666.666C674.185 166.71 681.469 169.295 687.333 174Z" stroke="#7BD3EA" stroke-width="66.6667" stroke-linecap="round" stroke-linejoin="round"/>
</svg>
