<svg width="800" height="800" viewBox="0 0 800 800" fill="none" xmlns="http://www.w3.org/2000/svg">
<path d="M616.667 700C331.32 700 100 468.68 100 183.333C100 170.459 100.471 157.695 101.396 145.058C102.458 130.554 102.989 123.302 106.79 116.701C109.938 111.234 115.517 106.049 121.199 103.308C128.06 100 136.063 100 152.067 100H245.977C259.436 100 266.165 100 271.934 102.215C277.03 104.172 281.567 107.35 285.147 111.47C289.2 116.134 291.5 122.459 296.1 135.107L334.97 242.002C340.32 256.718 342.997 264.076 342.543 271.057C342.143 277.212 340.04 283.136 336.473 288.169C332.429 293.876 325.715 297.904 312.288 305.961L266.667 333.333C306.73 421.63 378.337 493.33 466.667 533.333L494.04 487.713C502.097 474.283 506.123 467.57 511.83 463.527C516.863 459.96 522.787 457.857 528.943 457.457C535.923 457.003 543.283 459.68 558 465.03L664.893 503.9C677.54 508.5 683.867 510.8 688.53 514.853C692.65 518.433 695.83 522.97 697.783 528.067C700 533.833 700 540.563 700 554.023V647.933C700 663.937 700 671.94 696.69 678.8C693.95 684.483 688.767 690.063 683.3 693.21C676.697 697.01 669.447 697.54 654.943 698.603C642.303 699.53 629.54 700 616.667 700Z" stroke="#E36414" stroke-width="66.6667" stroke-linecap="round" stroke-linejoin="round"/>
<path d="M596 137.5C596 125.074 583.688 115 568.5 115C553.312 115 541 125.074 541 137.5V328.5C541 340.926 553.312 351 568.5 351C583.688 351 596 340.926 596 328.5V137.5Z" fill="#7BD3EA"/>
<path d="M706 137.5C706 125.074 693.688 115 678.5 115C663.312 115 651 125.074 651 137.5V328.5C651 340.926 663.312 351 678.5 351C693.688 351 706 340.926 706 328.5V137.5Z" fill="#7BD3EA"/>
</svg>
