<svg width="800" height="800" viewBox="0 0 800 800" fill="none" xmlns="http://www.w3.org/2000/svg">
<path d="M400 366.667C436.819 366.667 466.667 336.819 466.667 300C466.667 263.181 436.819 233.333 400 233.333C363.181 233.333 333.333 263.181 333.333 300C333.333 336.819 363.181 366.667 400 366.667Z" stroke="#7BD3EA" stroke-width="66.6667" stroke-linecap="round" stroke-linejoin="round"/>
<path d="M400 700C400 700 200 466.667 200 300C200 246.957 221.071 196.086 258.579 158.579C296.086 121.071 346.957 100 400 100C453.043 100 503.914 121.071 541.421 158.579C578.929 196.086 600 246.957 600 300C600 466.667 400 700 400 700Z" stroke="#E36414" stroke-width="66.6667" stroke-linecap="round" stroke-linejoin="round"/>
</svg>
