<svg width="800" height="800" viewBox="0 0 800 800" fill="none" xmlns="http://www.w3.org/2000/svg">
<path d="M223.333 273.333L173.333 223.333ZM576.667 273.333L626.667 223.333ZM400 200V100ZM500 100H300Z" fill="#D9D9D9"/>
<path d="M223.333 273.333L173.333 223.333M576.667 273.333L626.667 223.333M400 200V100M500 100H300" stroke="#7BD3EA" stroke-width="66.6667" stroke-linecap="round" stroke-linejoin="round"/>
<path d="M333.333 466.667H400V333.333" stroke="#7BD3EA" stroke-width="66.6667" stroke-linecap="round" stroke-linejoin="round"/>
<path d="M400 700C538.071 700 650 588.071 650 450C650 311.929 538.071 200 400 200C261.929 200 150 311.929 150 450C150 588.071 261.929 700 400 700Z" stroke="#E36414" stroke-width="66.6667" stroke-linecap="round" stroke-linejoin="round"/>
</svg>
