<svg width="46" height="46" viewBox="0 0 46 46" fill="none" xmlns="http://www.w3.org/2000/svg">
<g clip-path="url(#clip0_370_20)">
<path d="M46.0383 41.4095L43.3263 44.1216L38.3333 39.1268V30.6666H34.5V34.4999H0V26.8333C0 25.3083 0.605802 23.8457 1.68414 22.7674C2.76247 21.6891 4.22501 21.0833 5.75 21.0833H28.75C30.275 21.0833 31.7375 21.6891 32.8159 22.7674C33.8942 23.8457 34.5 25.3083 34.5 26.8333H38.3333V18.3731L43.2074 13.499L45.9176 16.2092L42.1667 19.9601V37.5398L46.0383 41.4095ZM3.9445 38.3333C2.81942 45.9118 14.4325 45.9079 13.3055 38.3333H3.9445ZM21.1945 38.3333C20.0694 45.9118 31.6825 45.9079 30.5555 38.3333H21.1945Z" fill="#E36414"/>
<path d="M8 19.03V6.03002C8 6.03002 17 5.81626 19 6.53003C21 7.2438 28.5 19.03 28.5 19.03H8Z" fill="#7BD3EA"/>
</g>
<defs>
<clipPath id="clip0_370_20">
<rect width="46" height="46" fill="white"/>
</clipPath>
</defs>
</svg>
