<svg width="46" height="46" viewBox="0 0 46 46" fill="none" xmlns="http://www.w3.org/2000/svg">
<path d="M18.2084 4.79167C18.2084 2.14475 20.3531 0 23 0C25.6469 0 27.7917 2.14475 27.7917 4.79167C27.7917 7.43858 25.6469 9.58333 23 9.58333C20.3531 9.58333 18.2084 7.43858 18.2084 4.79167ZM8.00785 24.7844L15.4886 13.9763C16.5658 12.4238 18.331 11.5 20.217 11.5H25.783C27.6671 11.5 29.4343 12.4238 30.5095 13.9744L37.9922 24.7844L34.8393 26.9675L28.7481 18.1681V26.8333H17.2481V18.1662L11.1569 26.9656L8.00402 24.7825L8.00785 24.7844ZM24.9167 23V15.3333H21.0834V23H24.9167ZM7.66669 46H38.3334V42.1667H7.66669V46ZM15.3334 36.4167H30.6667V32.5833H15.3334V36.4167Z" fill="#E36414"/>
<path d="M10 1L11.3471 5.1459H15.7063L12.1796 7.7082L13.5267 11.8541L10 9.2918L6.47329 11.8541L7.82037 7.7082L4.29366 5.1459H8.65292L10 1Z" fill="#7BD3EA"/>
<path d="M38 5L39.3471 9.1459H43.7063L40.1796 11.7082L41.5267 15.8541L38 13.2918L34.4733 15.8541L35.8204 11.7082L32.2937 9.1459H36.6529L38 5Z" fill="#7BD3EA"/>
</svg>
